# xmcd
#
# Track frame offsets:
#	150
#	41225
#	61820
#	77955
#	95425
#	109895
#	127292
#	144902
#	167267
#	192505
#	207825
#	226037
#	243080
#
# Disc length: 3723 seconds
#
# Revision: 1
# Processed by: cddbd v1.5.1PL0 Copyright (c) Steve Scherf et al.
# Submitted via: CDex 1.50Beta5
#
DISCID=ad0e890d
DTITLE=44MAGNUM - LIVE and RARE Disc 6
DYEAR=2000
DGENRE=Rock
TTITLE0=SATISFACTION
TTITLE1=WILD BEAST,THE
TTITLE2=BABY,COME TOGETHER
TTITLE3=I BELIEVE THE TOWN
TTITLE4=NO STANDING STILL
TTITLE5=STREET ROCK’N ROLLER
TTITLE6=I’M ON FIRE
TTITLE7=YOUR HEART
TTITLE8=I’M LONELY MAN
TTITLE9=AT LAST I’M A FREE MAN
TTITLE10=SURREDER
TTITLE11=I GIVE YOU MY LOVE
TTITLE12=SATISFACTION
EXTD=
EXTT0=
EXTT1=
EXTT2=
EXTT3=
EXTT4=
EXTT5=
EXTT6=
EXTT7=
EXTT8=
EXTT9=
EXTT10=
EXTT11=
EXTT12=
PLAYORDER=
